<svg xmlns="http://www.w3.org/2000/svg" width="160" height="160" viewBox="0 0 160 160" role="img" aria-labelledby="title">
  <title id="title">QR kód placeholder</title>
  <rect width="160" height="160" rx="18" fill="white"/>
  <rect x="16" y="16" width="42" height="42" fill="oklch(0.205 0.045 154)"/>
  <rect x="26" y="26" width="22" height="22" fill="white"/>
  <rect x="102" y="16" width="42" height="42" fill="oklch(0.205 0.045 154)"/>
  <rect x="112" y="26" width="22" height="22" fill="white"/>
  <rect x="16" y="102" width="42" height="42" fill="oklch(0.205 0.045 154)"/>
  <rect x="26" y="112" width="22" height="22" fill="white"/>
  <rect x="74" y="28" width="12" height="12" fill="oklch(0.405 0.122 164)"/>
  <rect x="74" y="52" width="12" height="12" fill="oklch(0.205 0.045 154)"/>
  <rect x="92" y="74" width="12" height="12" fill="oklch(0.405 0.122 164)"/>
  <rect x="116" y="74" width="12" height="12" fill="oklch(0.205 0.045 154)"/>
  <rect x="74" y="102" width="12" height="12" fill="oklch(0.205 0.045 154)"/>
  <rect x="98" y="104" width="12" height="12" fill="oklch(0.405 0.122 164)"/>
  <rect x="122" y="122" width="12" height="12" fill="oklch(0.205 0.045 154)"/>
  <rect x="74" y="130" width="36" height="12" fill="oklch(0.405 0.122 164)"/>
</svg>
