<svg xmlns="http://www.w3.org/2000/svg" width="420" height="746" viewBox="0 0 420 746" role="img" aria-labelledby="title desc">
  <title id="title">Přidání hlášení</title>
  <desc id="desc">Placeholder obrazovka pro landing page Studánky.</desc>
  <rect width="420" height="746" rx="44" fill="oklch(0.988 0.012 169)"/>
  <rect x="28" y="28" width="364" height="690" rx="32" fill="white" stroke="oklch(0.87 0.025 150)" stroke-width="2"/>
  <rect x="164" y="48" width="92" height="8" rx="4" fill="oklch(0.87 0.025 150)"/>
  <text x="52" y="96" fill="oklch(0.205 0.045 154)" font-family="Arial, sans-serif" font-size="24" font-weight="700">Studánky</text>
  <rect x="52" y="120" width="316" height="44" rx="14" fill="oklch(0.946 0.018 115)"/>
  <text x="72" y="148" fill="oklch(0.446 0.035 155)" font-family="Arial, sans-serif" font-size="15">Přidání hlášení</text>
  
  <rect x="52" y="196" width="316" height="70" rx="18" fill="oklch(0.934 0.055 142)"/>
  <rect x="72" y="222" width="170" height="18" rx="9" fill="oklch(0.405 0.122 164)" opacity="0.35"/>
  <rect x="52" y="296" width="316" height="70" rx="18" fill="oklch(0.946 0.018 115)"/>
  <rect x="72" y="322" width="220" height="18" rx="9" fill="oklch(0.446 0.035 155)" opacity="0.28"/>
  <rect x="52" y="396" width="316" height="150" rx="18" fill="oklch(0.946 0.018 115)"/>
  <rect x="72" y="424" width="250" height="16" rx="8" fill="oklch(0.446 0.035 155)" opacity="0.22"/>
  <rect x="72" y="456" width="210" height="16" rx="8" fill="oklch(0.446 0.035 155)" opacity="0.22"/>
  <rect x="52" y="586" width="316" height="54" rx="18" fill="oklch(0.405 0.122 164)"/>
  <text x="160" y="620" fill="white" font-family="Arial, sans-serif" font-size="16" font-weight="700">Odeslat</text>

  <circle cx="210" cy="690" r="20" fill="oklch(0.82 0.12 82)" opacity="0.18"/>
</svg>
